<svg class="dn" height="0" version="1.1" width="0"
    xmlns="http://www.w3.org/2000/svg">
    <defs>
        <g id="expositores" clip-path="url(#clip0)">
            <path d="M9.50564 21.7083H6.23538C5.89005 21.7083 5.78645 21.6233 5.783 21.2447C5.783 20.0273 5.783 18.8063 5.783 17.5854C5.79038 17.5127 5.77312 17.4396 5.73414 17.3784C5.69515 17.3172 5.63681 17.2716 5.56889 17.2492C4.10683 16.5821 2.83338 15.5465 1.86725 14.239C0.901111 12.9315 0.273745 11.3945 0.043629 9.77145C-0.0114034 9.55816 -0.0191878 9.33497 0.0208457 9.1182C0.0608793 8.90143 0.147717 8.69659 0.274999 8.51867C0.448278 8.28875 0.691246 8.12441 0.965657 8.05153C1.67704 7.85689 2.41604 7.65871 3.13087 7.47468C3.41219 7.40677 3.69694 7.35479 3.98383 7.31897C4.72757 7.216 5.40864 6.83709 5.89806 6.25402C6.38747 5.67094 6.65124 4.92418 6.63941 4.15517C6.63941 3.15365 6.63941 2.15567 6.63941 1.15416C6.63941 0.800264 6.73265 0.708252 7.08489 0.708252H11.9195C12.2648 0.708252 12.3546 0.817959 12.3546 1.15062C12.3546 2.10259 12.3822 3.05456 12.3546 4.00299C12.3154 4.79964 12.5694 5.58234 13.0662 6.19635C13.5631 6.81036 14.2666 7.21097 15.0378 7.31897C15.8321 7.43575 16.6056 7.67286 17.386 7.87812L17.8592 7.98783C18.0433 8.01228 18.2204 8.07579 18.3793 8.1743C18.5382 8.27282 18.6753 8.40417 18.7818 8.56C18.8884 8.71583 18.9621 8.89271 18.9983 9.07935C19.0344 9.266 19.0322 9.45832 18.9918 9.64405C18.795 11.2194 18.2234 12.7211 17.3274 14.017C16.4314 15.3128 15.2384 16.3633 13.8533 17.0758C13.8212 17.101 13.7849 17.1201 13.7463 17.1324C13.325 17.228 13.2525 17.4863 13.2663 17.9145C13.2974 19.0257 13.2663 20.1334 13.2663 21.2447C13.2663 21.5985 13.1489 21.7259 12.7966 21.7259L9.50564 21.7083ZM3.79735 7.99137C3.40713 8.08692 2.99619 8.18247 2.5887 8.28864C2.18122 8.3948 1.72193 8.54344 1.27991 8.64253C1.18116 8.65205 1.08545 8.68262 0.998915 8.73229C0.912381 8.78196 0.836937 8.84962 0.777428 8.93093C0.717919 9.01225 0.675659 9.10541 0.653362 9.20445C0.631065 9.30349 0.629223 9.40622 0.647955 9.50603C0.703207 9.83869 0.75846 10.1713 0.837886 10.5005C1.29932 12.4283 2.36076 14.1497 3.86168 15.4043C5.3626 16.6589 7.22136 17.3786 9.15686 17.4545C10.4759 17.5352 11.7946 17.2926 13.0038 16.7467C16.0496 15.3311 17.8384 12.9352 18.3564 9.54142C18.3813 9.44591 18.3864 9.34611 18.3714 9.24846C18.3563 9.15081 18.3215 9.05747 18.2691 8.97445C18.2168 8.89144 18.148 8.82059 18.0673 8.76647C17.9865 8.71234 17.8957 8.67615 17.8004 8.66022C17.2548 8.51867 16.7092 8.37003 16.1636 8.23201C15.8459 8.15062 15.5282 8.08338 15.2277 8.0126C14.5578 11.0632 12.4927 12.2805 9.66795 12.5743V13.7669H9.73701C9.94549 13.6741 10.1785 13.6565 10.398 13.7169C10.6176 13.7773 10.8106 13.9122 10.9457 14.0996C11.0817 14.2795 11.1512 14.503 11.1417 14.7304C11.1322 14.9578 11.0444 15.1744 10.8939 15.3417C10.5368 15.8345 10.1041 16.2648 9.61269 16.6157C9.57448 16.6368 9.53177 16.6478 9.48838 16.6478C9.44499 16.6478 9.40227 16.6368 9.36406 16.6157C8.85407 16.2149 8.40587 15.7377 8.03454 15.2002C7.92721 15.0564 7.8651 14.8826 7.85646 14.7018C7.84783 14.521 7.89308 14.3418 7.9862 14.188C8.07476 14.0195 8.20969 13.8813 8.37423 13.7907C8.53877 13.7001 8.72566 13.6611 8.91168 13.6784C9.05123 13.6973 9.18959 13.7245 9.32607 13.7598V12.5778C6.52891 12.2805 4.46729 11.0667 3.79735 7.99137ZM14.879 7.95952L14.7823 7.93474C13.9126 7.77803 13.1268 7.30615 12.5683 6.60518C12.0098 5.90421 11.7158 5.02085 11.7399 4.11624C11.7399 3.27397 11.7399 2.43525 11.7399 1.59298V1.37711H7.27827V1.66022C7.27827 2.5308 7.27827 3.39784 7.27827 4.26487C7.26761 5.02895 7.03078 5.7717 6.59912 6.3948C6.16746 7.0179 5.56133 7.49197 4.86097 7.75426C4.63305 7.83919 4.39823 7.89582 4.14959 7.96659C4.14959 8.07276 4.17031 8.18247 4.19103 8.28864C4.31025 8.88104 4.54439 9.44286 4.87956 9.94075C5.21472 10.4386 5.64408 10.8624 6.14214 11.187C7.39326 12.0535 8.91994 12.3978 10.4104 12.1496C11.6161 12.0032 12.7394 11.4476 13.6012 10.5712C14.3101 9.88078 14.7578 8.95566 14.8651 7.95952H14.879ZM6.45293 17.6208V21.0429H12.5825V17.6208C10.5901 18.3109 8.43156 18.3109 6.43912 17.6208H6.45293ZM9.50219 16.3397C9.96457 15.9784 10.3699 15.5463 10.7039 15.0586C10.7564 14.9938 10.7958 14.919 10.82 14.8386C10.8442 14.7581 10.8527 14.6736 10.845 14.5898C10.8373 14.506 10.8136 14.4245 10.7752 14.3501C10.7367 14.2757 10.6844 14.2098 10.6211 14.1562C10.5565 14.0952 10.4807 14.048 10.3982 14.0173C10.3157 13.9866 10.228 13.9729 10.1403 13.9772C10.0526 13.9815 9.96659 14.0036 9.88728 14.0422C9.80797 14.0808 9.73694 14.1352 9.67831 14.2022C9.57126 14.3119 9.47802 14.3508 9.35715 14.227C9.30258 14.1564 9.23432 14.0982 9.15669 14.056C9.07905 14.0139 8.99373 13.9887 8.9061 13.982C8.81848 13.9754 8.73047 13.9874 8.64762 14.0174C8.56477 14.0474 8.48888 14.0946 8.42476 14.1562C8.35414 14.208 8.29546 14.275 8.25286 14.3526C8.21025 14.4301 8.18476 14.5163 8.17818 14.605C8.17159 14.6938 8.18407 14.7829 8.21475 14.8662C8.24542 14.9494 8.29353 15.0248 8.3557 15.0869C8.71484 15.5116 9.10161 15.9256 9.48838 16.3397H9.50219Z" fill="#2E2F67"/>
        </g>
        <g id="estojos" clip-path="url(#clip0)">
            <path d="M12.3281 13.4581C12.3819 13.458 12.4346 13.4739 12.4802 13.5038C12.5258 13.5337 12.5625 13.5765 12.586 13.6272L14.0731 16.9796C14.2383 17.3601 13.8434 17.7955 12.8923 17.7955H2.10775C1.16068 17.7955 0.761701 17.3728 0.930965 16.9796L2.41807 13.6272C2.44193 13.5768 2.47868 13.5343 2.52422 13.5044C2.56975 13.4745 2.6223 13.4585 2.67599 13.4581H12.3482H12.3281ZM12.3482 13.0354H2.67599C2.54366 13.0356 2.41414 13.0755 2.30274 13.1504C2.19133 13.2253 2.10269 13.3321 2.0473 13.4581L0.560196 16.7978C0.501706 16.9279 0.475821 17.0715 0.484989 17.215C0.494156 17.3585 0.538074 17.4972 0.612588 17.6179C0.858423 18.0407 1.38636 18.2394 2.10775 18.2394H12.8963C13.6177 18.2394 14.1456 18.0195 14.3915 17.6179C14.4663 17.5006 14.5109 17.3649 14.5207 17.2241C14.5306 17.0834 14.5055 16.9423 14.4479 16.8147L12.9608 13.4624C12.9054 13.3363 12.8168 13.2295 12.7053 13.1546C12.5939 13.0797 12.4644 13.0398 12.3321 13.0396L12.3482 13.0354Z" fill="#2E2F67"/>
            <path d="M13.7024 15.5423C13.3477 14.8617 12.9931 14.1727 12.8964 13.9317C12.8345 13.824 12.7521 13.7308 12.6543 13.6581C12.5565 13.5853 12.4455 13.5346 12.3281 13.5089H2.69217C2.57498 13.535 2.46411 13.586 2.36639 13.6587C2.26867 13.7314 2.18616 13.8243 2.12392 13.9317C2.01108 14.1727 1.65643 14.8617 1.31791 15.5423L0.959229 15.3394C1.30985 14.6588 1.66449 13.974 1.76525 13.7415C1.85572 13.5674 1.98177 13.4165 2.13435 13.2996C2.28693 13.1827 2.46228 13.1026 2.64784 13.0651H12.3604C12.5461 13.102 12.7217 13.1819 12.8743 13.2989C13.027 13.4159 13.1529 13.5671 13.2429 13.7415C13.3518 13.974 13.7064 14.6588 14.049 15.3394L13.7024 15.5423Z" fill="#2E2F67"/>
            <path d="M12.5779 20.7083H2.41808C0.862461 20.7083 0.245857 19.6219 0.124954 18.9793C0.0967434 18.7975 0.0524124 18.4001 0.0282318 18.0408C0.0282318 17.9985 0.0282318 17.9605 0.0282318 17.9182C-0.0282581 17.5694 0.0137686 17.2108 0.149135 16.8867C0.241827 16.6965 0.552144 16.1215 0.8544 15.5128L0.951123 15.3268L1.3098 15.5297L1.20905 15.7284C0.894701 16.3371 0.596475 16.9121 0.507813 17.0938C0.409781 17.347 0.383201 17.6243 0.431241 17.8928C0.431241 17.9351 0.431241 17.9816 0.431241 18.0239C0.455421 18.3494 0.495722 18.7341 0.527963 18.899C0.527963 18.9539 0.802009 20.2771 2.41808 20.2771H12.5739C14.1859 20.2771 14.456 18.9539 14.464 18.899C14.4963 18.7341 14.5366 18.3494 14.5607 18.0239C14.5607 17.9816 14.5607 17.9351 14.5607 17.8928C14.6165 17.6267 14.5983 17.3494 14.5083 17.0938C14.4197 16.9163 14.1295 16.354 13.8232 15.758L13.7023 15.5424L14.061 15.3395L14.1738 15.5551C14.4801 16.1511 14.7743 16.7134 14.863 16.8994C15.0005 17.2229 15.0426 17.5821 14.9839 17.9309C14.9859 17.9717 14.9859 18.0126 14.9839 18.0535C14.9597 18.4001 14.9154 18.7975 14.8831 18.9793C14.7502 19.6219 14.1376 20.7083 12.5779 20.7083Z" fill="#2E2F67"/>
            <path d="M13.0212 18.3959H1.97877C1.08811 18.3959 0.511812 18.1718 0.261946 17.7364C0.176095 17.5575 0.134428 17.3589 0.140765 17.1587C0.147102 16.9585 0.201241 16.7633 0.298217 16.5907L0.943031 15.3225L1.30171 15.5297C1.30171 15.5297 0.86646 16.3751 0.656895 16.7767C0.59543 16.8849 0.559357 17.0069 0.551649 17.1326C0.543942 17.2583 0.56482 17.3841 0.612564 17.4996C0.781828 17.7913 1.25335 17.9477 1.97877 17.9477H13.0212C13.7466 17.9477 14.2302 17.7913 14.3874 17.4996C14.4352 17.3841 14.456 17.2583 14.4483 17.1326C14.4406 17.0069 14.4046 16.8849 14.3431 16.7767C14.1335 16.354 13.7104 15.5466 13.6983 15.5297L14.057 15.3225C14.057 15.3225 14.4922 16.168 14.7018 16.5907C14.7987 16.7633 14.8529 16.9585 14.8592 17.1587C14.8656 17.3589 14.8239 17.5575 14.738 17.7364C14.5083 18.1718 13.9119 18.3959 13.0212 18.3959Z" fill="#2E2F67"/>
            <path d="M13.7346 15.5931L13.8796 15.4409L13.7346 15.5931ZM14.0811 15.4409H13.8796L14.0247 15.2887L14.0811 15.4409Z" fill="#2E2F67"/>
            <path d="M11.6873 13.3905H3.35711C3.1673 13.3911 2.97926 13.3524 2.80375 13.2766C2.62823 13.2007 2.46871 13.0894 2.33431 12.9488C2.19991 12.8082 2.09327 12.6412 2.02051 12.4573C1.94776 12.2734 1.9103 12.0762 1.91031 11.8771L1.64029 3.18128C1.64028 2.66924 1.83364 2.17805 2.17805 1.81519C2.52246 1.45233 2.98988 1.24735 3.47801 1.24512H11.5704C12.0586 1.24623 12.5264 1.45014 12.8716 1.8122C13.2167 2.17427 13.4111 2.66502 13.4122 3.17706L13.1381 11.894C13.1366 12.0922 13.0978 12.2881 13.024 12.4706C12.9502 12.6531 12.8429 12.8185 12.7082 12.9575C12.5735 13.0965 12.414 13.2062 12.2388 13.2805C12.0637 13.3548 11.8762 13.3922 11.6873 13.3905ZM3.47801 1.67632C3.0989 1.67743 2.73562 1.8359 2.46754 2.1171C2.19947 2.39831 2.04839 2.77938 2.04733 3.17706L2.32137 11.8771C2.32084 12.0201 2.34724 12.1619 2.39906 12.2942C2.45087 12.4265 2.52708 12.5468 2.62331 12.6481C2.71953 12.7494 2.83389 12.8298 2.95982 12.8847C3.08574 12.9396 3.22075 12.9678 3.35711 12.9678H11.6873C11.962 12.9678 12.2254 12.8533 12.4197 12.6496C12.6139 12.4458 12.723 12.1695 12.723 11.8813L12.9931 3.1686C12.992 2.77131 12.8408 2.39068 12.5726 2.11015C12.3044 1.82962 11.9411 1.67209 11.5624 1.67209L3.47801 1.67632Z" fill="#2E2F67"/>
            <path d="M11.4818 1.89189C11.8377 1.89189 12.1791 2.04021 12.4307 2.30421C12.6824 2.56821 12.8238 2.92627 12.8238 3.29963L12.5498 11.7545C12.5503 11.8846 12.5263 12.0134 12.4791 12.1337C12.4319 12.254 12.3624 12.3633 12.2747 12.4552C12.1871 12.5472 12.0829 12.62 11.9682 12.6696C11.8536 12.7191 11.7307 12.7443 11.6067 12.7437H3.44578C3.19637 12.7448 2.95668 12.6423 2.77919 12.4585C2.60169 12.2747 2.50084 12.0246 2.49871 11.763L2.2287 3.30808C2.22763 3.12286 2.26143 2.93924 2.32815 2.76775C2.39486 2.59625 2.49319 2.44025 2.61748 2.30869C2.74178 2.17713 2.88961 2.07259 3.05249 2.00107C3.21537 1.92955 3.39011 1.89244 3.56669 1.89189H11.4818ZM11.4818 1.46915H3.56669C3.10383 1.47026 2.66017 1.66334 2.33251 2.00626C2.00484 2.34918 1.81975 2.81411 1.81763 3.29963L2.09167 11.7545C2.0938 12.1298 2.23741 12.4889 2.49112 12.7534C2.74484 13.018 3.08804 13.1665 3.44578 13.1665H11.6067C11.9645 13.1665 12.3077 13.018 12.5614 12.7534C12.8151 12.4889 12.9587 12.1298 12.9608 11.7545L13.2349 3.29963C13.2349 2.81191 13.0502 2.34417 12.7214 1.9993C12.3926 1.65444 11.9467 1.46069 11.4818 1.46069V1.46915Z" fill="#2E2F67"/>
            <path d="M5.6018 15.0392C5.54834 14.7406 5.56048 14.433 5.6373 14.14C5.71411 13.847 5.85358 13.5762 6.04511 13.3482C6.36014 12.956 6.80807 12.7074 7.29444 12.6549C7.3384 12.6448 7.38423 12.6482 7.42641 12.6646C7.46859 12.6811 7.50533 12.7101 7.53221 12.7479C7.60073 12.6169 7.70551 12.6465 7.80223 12.6634C8.19319 12.7179 8.55835 12.8985 8.84716 13.1802C9.13596 13.462 9.33414 13.8309 9.41427 14.236C9.51701 14.6933 9.46723 15.1738 9.27321 15.5972H9.52711C9.69624 15.1995 9.74681 14.7574 9.67219 14.329C9.61001 13.9197 9.44236 13.5359 9.18737 13.2193C8.93237 12.9026 8.59973 12.6651 8.22539 12.5323C8.11255 12.4858 7.98761 12.4605 7.86268 12.4224L8.71303 11.6234V11.6023L8.11255 10.9809C8.09192 10.9638 8.06626 10.9549 8.04001 10.9555H6.95188C6.93551 10.9545 6.91916 10.9578 6.90436 10.9652C6.88955 10.9726 6.87678 10.9838 6.86725 10.9978L6.39573 11.6277L6.33125 11.7165L7.13726 12.4182L7.01636 12.4478C6.73493 12.5164 6.46921 12.6427 6.23447 12.8194C5.99973 12.9962 5.80061 13.2198 5.64856 13.4775C5.4965 13.7352 5.39451 14.022 5.34844 14.3212C5.30238 14.6204 5.31315 14.9262 5.38015 15.221C5.41182 15.3488 5.45085 15.4744 5.49702 15.5972H5.74688C5.67437 15.4191 5.62556 15.2313 5.6018 15.0392ZM6.70201 11.6995L6.66171 11.6784L7.00024 11.2303C7.01412 11.2153 7.03278 11.2063 7.05263 11.2049H7.9594C7.96641 11.2018 7.97395 11.2002 7.98157 11.2002C7.98919 11.2002 7.99673 11.2018 8.00374 11.2049L8.3745 11.5769L8.07628 11.856L7.57252 12.3337C7.53624 12.3675 7.51206 12.3717 7.47579 12.3337L6.70201 11.6995Z" fill="#2E2F67"/>
            <path d="M2.41805 2.1329L2.01505 2.01453C2.01505 1.9638 2.36969 0.797028 4.18323 0.746299C5.86378 0.708252 7.51209 0.708252 7.52821 0.708252V1.131C7.52821 1.131 5.87184 1.131 4.21144 1.16482C2.71225 1.21554 2.41805 2.09908 2.41805 2.1329Z" fill="#2E2F67"/>
            <path d="M12.6264 2.1329C12.6264 2.09908 12.3402 1.21554 10.8411 1.17327C9.18066 1.131 7.54444 1.131 7.52832 1.131V0.708252C7.52832 0.708252 9.18872 0.708252 10.8572 0.746299C12.6707 0.797028 13.0092 1.9638 13.0254 2.01453L12.6264 2.1329Z" fill="#2E2F67"/>
        </g>
        <g id="porta-joias" clip-path="url(#clip0)">
            <path d="M3.42798 1.43372L3.43184 1.43762H20.5719V1.43372H3.42798Z" fill="#2E2F67"/>
            <path d="M11.3431 11.9408H4.33629L4.08508 7.45947H11.3392L11.3431 11.9408ZM4.48702 11.7769H11.1846V7.61938H4.25127L4.48702 11.7769Z" fill="#2E2F67"/>
            <path d="M6.02327 8.10737L5.96588 8.16528L9.12497 11.3533L9.18236 11.2954L6.02327 8.10737Z" fill="#2E2F67"/>
            <path d="M5.69795 9.1789L5.64056 9.23682L6.88125 10.4889L6.93863 10.431L5.69795 9.1789Z" fill="#2E2F67"/>
            <path d="M7.92067 8.38032L7.86328 8.43823L9.2652 9.853L9.32259 9.79508L7.92067 8.38032Z" fill="#2E2F67"/>
            <path d="M16.0464 17.8689H15.2541C15.2093 17.8639 15.164 17.8685 15.121 17.8824C15.0781 17.8963 15.0385 17.9192 15.0049 17.9495C14.9714 17.9799 14.9445 18.0171 14.9261 18.0586C14.9077 18.1002 14.8982 18.1452 14.8982 18.1907C14.8982 18.2362 14.9077 18.2812 14.9261 18.3227C14.9445 18.3642 14.9714 18.4014 15.0049 18.4318C15.0385 18.4621 15.0781 18.485 15.121 18.4989C15.164 18.5128 15.2093 18.5174 15.2541 18.5124H15.4126V19.585H8.58746V18.528H8.74592C8.79074 18.533 8.83609 18.5284 8.87903 18.5145C8.92197 18.5006 8.96152 18.4777 8.9951 18.4474C9.02869 18.417 9.05555 18.3798 9.07395 18.3383C9.09234 18.2968 9.10185 18.2518 9.10185 18.2063C9.10185 18.1608 9.09234 18.1158 9.07395 18.0742C9.05555 18.0327 9.02869 17.9955 8.9951 17.9651C8.96152 17.9348 8.92197 17.9119 8.87903 17.898C8.83609 17.8841 8.79074 17.8795 8.74592 17.8845H7.95365C7.87514 17.8932 7.80258 17.9309 7.74988 17.9903C7.69717 18.0496 7.66803 18.1265 7.66803 18.2063C7.66803 18.286 7.69717 18.3629 7.74988 18.4222C7.80258 18.4816 7.87514 18.5193 7.95365 18.528H8.11597V19.819C8.11596 19.8505 8.12218 19.8818 8.13427 19.9109C8.14636 19.94 8.16407 19.9664 8.18638 19.9886C8.20868 20.0107 8.23512 20.0282 8.26417 20.0399C8.29322 20.0516 8.3243 20.0574 8.35558 20.0569H15.6483C15.6796 20.0574 15.7107 20.0516 15.7397 20.0399C15.7688 20.0282 15.7952 20.0107 15.8175 19.9886C15.8398 19.9664 15.8575 19.94 15.8696 19.9109C15.8817 19.8818 15.8879 19.8505 15.8879 19.819V18.528H16.0464C16.1249 18.5193 16.1975 18.4816 16.2502 18.4222C16.3029 18.3629 16.332 18.286 16.332 18.2063C16.332 18.1265 16.3029 18.0496 16.2502 17.9903C16.1975 17.9309 16.1249 17.8932 16.0464 17.8845V17.8689Z" fill="#2E2F67"/>
            <path d="M4.3324 2.43212C4.31141 2.43279 4.29053 2.42892 4.27116 2.42077C4.25179 2.41261 4.23437 2.40036 4.22009 2.38483C4.20581 2.36931 4.19499 2.35088 4.18836 2.33078C4.18173 2.31068 4.17945 2.28938 4.18167 2.26831C4.18116 2.24801 4.18467 2.22781 4.19202 2.2089C4.19936 2.19 4.21038 2.17277 4.22443 2.15823C4.23848 2.14369 4.25527 2.13213 4.27381 2.12424C4.29235 2.11636 4.31227 2.1123 4.3324 2.1123C4.3734 2.1123 4.41272 2.12874 4.44171 2.158C4.4707 2.18725 4.48698 2.22694 4.48698 2.26831C4.48862 2.28958 4.4858 2.31096 4.47872 2.33106C4.47163 2.35116 4.46044 2.36953 4.44586 2.38498C4.43128 2.40042 4.41364 2.4126 4.3941 2.42073C4.37455 2.42885 4.35353 2.43273 4.3324 2.43212ZM4.3324 2.20591C4.31349 2.20367 4.29446 2.20892 4.27932 2.22056C4.26418 2.2322 4.25411 2.24932 4.25124 2.26831C4.25217 2.28766 4.26021 2.30596 4.27378 2.31966C4.28736 2.33336 4.30549 2.34147 4.32467 2.34241C4.33494 2.34351 4.34532 2.34241 4.35515 2.33918C4.36497 2.33595 4.374 2.33067 4.38166 2.32367C4.38932 2.31668 4.39543 2.30813 4.3996 2.29859C4.40376 2.28905 4.40588 2.27874 4.40583 2.26831C4.40387 2.25038 4.39516 2.2339 4.38149 2.22228C4.36781 2.21066 4.35024 2.2048 4.3324 2.20591Z" fill="#2E2F67"/>
            <path d="M5.29083 2.43212C5.26985 2.43279 5.24897 2.42892 5.2296 2.42077C5.21022 2.41261 5.19281 2.40036 5.17852 2.38483C5.16424 2.36931 5.15342 2.35088 5.14679 2.33078C5.14017 2.31068 5.13789 2.28938 5.14011 2.26831C5.13959 2.24801 5.14311 2.22781 5.15045 2.2089C5.15779 2.19 5.16881 2.17277 5.18286 2.15823C5.19691 2.14369 5.2137 2.13213 5.23224 2.12424C5.25079 2.11636 5.27071 2.1123 5.29083 2.1123C5.33183 2.1123 5.37115 2.12874 5.40014 2.158C5.42913 2.18725 5.44542 2.22694 5.44542 2.26831C5.44705 2.28958 5.44424 2.31096 5.43715 2.33106C5.43007 2.35116 5.41887 2.36953 5.40429 2.38498C5.38971 2.40042 5.37208 2.4126 5.35253 2.42073C5.33298 2.42885 5.31196 2.43273 5.29083 2.43212ZM5.29083 2.20591C5.27321 2.20569 5.25609 2.21187 5.24261 2.22332C5.22913 2.23478 5.22018 2.25075 5.2174 2.26831C5.21834 2.28766 5.22637 2.30596 5.23995 2.31966C5.25352 2.33336 5.27166 2.34147 5.29083 2.34241C5.31031 2.34241 5.32898 2.33461 5.34275 2.32071C5.35652 2.30681 5.36426 2.28796 5.36426 2.26831C5.36231 2.25038 5.35359 2.2339 5.33992 2.22228C5.32625 2.21066 5.30867 2.2048 5.29083 2.20591Z" fill="#2E2F67"/>
            <path d="M6.24927 2.43212C6.22829 2.43279 6.2074 2.42892 6.18803 2.42077C6.16866 2.41261 6.15124 2.40036 6.13696 2.38483C6.12268 2.36931 6.11186 2.35088 6.10523 2.33078C6.0986 2.31068 6.09632 2.28938 6.09854 2.26831C6.09803 2.24801 6.10154 2.22781 6.10889 2.2089C6.11623 2.19 6.12725 2.17277 6.1413 2.15823C6.15535 2.14369 6.17214 2.13213 6.19068 2.12424C6.20922 2.11636 6.22914 2.1123 6.24927 2.1123C6.29027 2.1123 6.32959 2.12874 6.35858 2.158C6.38757 2.18725 6.40386 2.22694 6.40386 2.26831C6.40549 2.28958 6.40267 2.31096 6.39559 2.33106C6.3885 2.35116 6.37731 2.36953 6.36273 2.38498C6.34815 2.40042 6.33051 2.4126 6.31097 2.42073C6.29142 2.42885 6.2704 2.43273 6.24927 2.43212ZM6.24927 2.20591C6.233 2.20745 6.2177 2.21442 6.2058 2.22573C6.1939 2.23703 6.18607 2.25201 6.18357 2.26831C6.1845 2.28766 6.19254 2.30596 6.20611 2.31966C6.21969 2.33336 6.23782 2.34147 6.257 2.34241C6.2751 2.34048 6.29185 2.33183 6.30399 2.31813C6.31613 2.30444 6.3228 2.28668 6.3227 2.26831C6.32074 2.25038 6.31203 2.2339 6.29836 2.22228C6.28468 2.21066 6.26711 2.2048 6.24927 2.20591Z" fill="#2E2F67"/>
            <path d="M7.20776 2.43212C7.18678 2.43279 7.1659 2.42892 7.14653 2.42077C7.12715 2.41261 7.10974 2.40036 7.09546 2.38483C7.08117 2.36931 7.07035 2.35088 7.06372 2.33078C7.0571 2.31068 7.05482 2.28938 7.05704 2.26831C7.05652 2.24801 7.06004 2.22781 7.06738 2.2089C7.07472 2.19 7.08575 2.17277 7.09979 2.15823C7.11384 2.14369 7.13063 2.13213 7.14918 2.12424C7.16772 2.11636 7.18764 2.1123 7.20776 2.1123C7.24876 2.1123 7.28808 2.12874 7.31707 2.158C7.34606 2.18725 7.36235 2.22694 7.36235 2.26831C7.36398 2.28958 7.36117 2.31096 7.35408 2.33106C7.347 2.35116 7.3358 2.36953 7.32122 2.38498C7.30664 2.40042 7.28901 2.4126 7.26946 2.42073C7.24991 2.42885 7.22889 2.43273 7.20776 2.43212ZM7.20776 2.20591C7.18829 2.20591 7.16961 2.21372 7.15584 2.22761C7.14207 2.24151 7.13433 2.26036 7.13433 2.28001C7.13527 2.29936 7.14331 2.31766 7.15688 2.33136C7.17045 2.34506 7.18859 2.35317 7.20776 2.35411C7.21846 2.35425 7.22906 2.35202 7.23882 2.34759C7.24858 2.34316 7.25726 2.33663 7.26426 2.32845C7.27125 2.32028 7.27639 2.31066 7.27932 2.30027C7.28224 2.28988 7.28288 2.27898 7.28119 2.26831C7.27924 2.25038 7.27052 2.2339 7.25685 2.22228C7.24318 2.21066 7.2256 2.2048 7.20776 2.20591Z" fill="#2E2F67"/>
            <path d="M8.1662 2.43212C8.14522 2.43279 8.12434 2.42892 8.10496 2.42077C8.08559 2.41261 8.06817 2.40036 8.05389 2.38483C8.03961 2.36931 8.02879 2.35088 8.02216 2.33078C8.01553 2.31068 8.01325 2.28938 8.01547 2.26831C8.01496 2.24801 8.01847 2.22781 8.02582 2.2089C8.03316 2.19 8.04418 2.17277 8.05823 2.15823C8.07228 2.14369 8.08907 2.13213 8.10761 2.12424C8.12615 2.11636 8.14607 2.1123 8.1662 2.1123C8.2072 2.1123 8.24652 2.12874 8.27551 2.158C8.3045 2.18725 8.32079 2.22694 8.32079 2.26831C8.32242 2.28958 8.3196 2.31096 8.31252 2.33106C8.30543 2.35116 8.29424 2.36953 8.27966 2.38498C8.26508 2.40042 8.24744 2.4126 8.2279 2.42073C8.20835 2.42885 8.18733 2.43273 8.1662 2.43212ZM8.1662 2.20591C8.14672 2.20591 8.12804 2.21372 8.11427 2.22761C8.1005 2.24151 8.09277 2.26036 8.09277 2.28001C8.0937 2.29936 8.10174 2.31766 8.11531 2.33136C8.12889 2.34506 8.14702 2.35317 8.1662 2.35411C8.1769 2.35425 8.1875 2.35202 8.19726 2.34759C8.20702 2.34316 8.2157 2.33663 8.22269 2.32845C8.22969 2.32028 8.23483 2.31066 8.23775 2.30027C8.24068 2.28988 8.24132 2.27898 8.23963 2.26831C8.23767 2.25038 8.22896 2.2339 8.21529 2.22228C8.20162 2.21066 8.18404 2.2048 8.1662 2.20591Z" fill="#2E2F67"/>
            <path d="M9.12469 2.43212C9.10371 2.43279 9.08283 2.42892 9.06346 2.42077C9.04409 2.41261 9.02667 2.40036 9.01239 2.38483C8.9981 2.36931 8.98728 2.35088 8.98066 2.33078C8.97403 2.31068 8.97175 2.28938 8.97397 2.26831C8.97345 2.24801 8.97697 2.22781 8.98431 2.2089C8.99166 2.19 9.00268 2.17277 9.01672 2.15823C9.03077 2.14369 9.04756 2.13213 9.06611 2.12424C9.08465 2.11636 9.10457 2.1123 9.12469 2.1123C9.16502 2.11332 9.20335 2.13021 9.23152 2.15935C9.25968 2.1885 9.27543 2.2276 9.27542 2.26831C9.27702 2.28925 9.27431 2.31029 9.26745 2.33012C9.2606 2.34995 9.24975 2.36813 9.23559 2.38351C9.22143 2.3989 9.20427 2.41116 9.18518 2.41953C9.1661 2.42789 9.1455 2.43218 9.12469 2.43212ZM9.12469 2.20591C9.10522 2.20591 9.08654 2.21372 9.07277 2.22761C9.059 2.24151 9.05126 2.26036 9.05126 2.28001C9.0522 2.29936 9.06024 2.31766 9.07381 2.33136C9.08738 2.34506 9.10552 2.35317 9.12469 2.35411C9.1354 2.35425 9.146 2.35202 9.15575 2.34759C9.16551 2.34316 9.17419 2.33663 9.18119 2.32845C9.18818 2.32028 9.19332 2.31066 9.19625 2.30027C9.19918 2.28988 9.19981 2.27898 9.19812 2.26831C9.19617 2.25038 9.18746 2.2339 9.17378 2.22228C9.16011 2.21066 9.14253 2.2048 9.12469 2.20591Z" fill="#2E2F67"/>
            <path d="M10.0831 2.43214C10.063 2.43266 10.043 2.42911 10.0242 2.4217C10.0055 2.41429 9.98844 2.40316 9.97403 2.38899C9.95962 2.37481 9.94817 2.35787 9.94036 2.33915C9.93254 2.32044 9.92852 2.30034 9.92853 2.28003C9.92853 2.23865 9.94481 2.19897 9.97381 2.16972C10.0028 2.14046 10.0421 2.12402 10.0831 2.12402C10.1241 2.12402 10.1634 2.14046 10.1924 2.16972C10.2214 2.19897 10.2377 2.23865 10.2377 2.28003C10.2377 2.30034 10.2337 2.32044 10.2259 2.33915C10.2181 2.35787 10.2066 2.37481 10.1922 2.38899C10.1778 2.40316 10.1607 2.41429 10.142 2.4217C10.1232 2.42911 10.1032 2.43266 10.0831 2.43214ZM10.0831 2.20593C10.0655 2.2057 10.0484 2.21188 10.0349 2.22334C10.0214 2.2348 10.0125 2.25077 10.0097 2.26833C10.0106 2.28768 10.0187 2.30598 10.0322 2.31968C10.0458 2.33338 10.0639 2.34149 10.0831 2.34243C10.1026 2.34243 10.1213 2.33462 10.135 2.32073C10.1488 2.30683 10.1565 2.28798 10.1565 2.26833C10.1546 2.2504 10.1459 2.23392 10.1322 2.2223C10.1185 2.21068 10.101 2.20482 10.0831 2.20593Z" fill="#2E2F67"/>
            <path d="M11.0415 2.4321C11.0214 2.43262 11.0014 2.42907 10.9827 2.42166C10.9639 2.41425 10.9469 2.40313 10.9324 2.38895C10.918 2.37478 10.9066 2.35783 10.8988 2.33912C10.891 2.32041 10.8869 2.3003 10.8869 2.28C10.8862 2.25874 10.8896 2.23754 10.8969 2.21761C10.9043 2.19768 10.9155 2.1794 10.9298 2.16383C10.9442 2.14826 10.9614 2.13569 10.9806 2.12685C10.9998 2.118 11.0205 2.11306 11.0415 2.11229C11.0626 2.11152 11.0836 2.11495 11.1034 2.12237C11.1231 2.12979 11.1412 2.14107 11.1566 2.15556C11.1721 2.17004 11.1845 2.18746 11.1933 2.2068C11.2021 2.22614 11.207 2.24704 11.2077 2.26829C11.2096 2.29061 11.2065 2.31306 11.1987 2.33404C11.191 2.35502 11.1787 2.37402 11.1628 2.38966C11.147 2.40531 11.1278 2.41723 11.1069 2.42457C11.0859 2.4319 11.0636 2.43447 11.0415 2.4321ZM11.0415 2.20589C11.0221 2.20589 11.0034 2.2137 10.9896 2.2276C10.9758 2.24149 10.9681 2.26034 10.9681 2.28C10.969 2.29934 10.9771 2.31765 10.9907 2.33134C11.0042 2.34504 11.0224 2.35315 11.0415 2.3541C11.0522 2.35423 11.0628 2.35201 11.0726 2.34757C11.0824 2.34314 11.091 2.33661 11.098 2.32844C11.105 2.32026 11.1102 2.31064 11.1131 2.30026C11.116 2.28987 11.1167 2.27896 11.115 2.26829C11.113 2.25036 11.1043 2.23388 11.0906 2.22226C11.077 2.21064 11.0594 2.20478 11.0415 2.20589Z" fill="#2E2F67"/>
            <path d="M12 2.43214C11.9799 2.43266 11.9599 2.42911 11.9412 2.4217C11.9224 2.41429 11.9054 2.40316 11.891 2.38899C11.8766 2.37481 11.8651 2.35787 11.8573 2.33915C11.8495 2.32044 11.8455 2.30034 11.8455 2.28003C11.8455 2.23865 11.8617 2.19897 11.8907 2.16972C11.9197 2.14046 11.959 2.12402 12 2.12402C12.041 2.12402 12.0804 2.14046 12.1094 2.16972C12.1383 2.19897 12.1546 2.23865 12.1546 2.28003C12.1546 2.30034 12.1506 2.32044 12.1428 2.33915C12.135 2.35787 12.1235 2.37481 12.1091 2.38899C12.0947 2.40316 12.0777 2.41429 12.0589 2.4217C12.0402 2.42911 12.0202 2.43266 12 2.43214ZM12 2.20593C11.9806 2.20593 11.9619 2.21373 11.9481 2.22763C11.9344 2.24153 11.9266 2.26038 11.9266 2.28003C11.9266 2.29968 11.9344 2.31853 11.9481 2.33243C11.9619 2.34633 11.9806 2.35413 12 2.35413C12.0195 2.35413 12.0382 2.34633 12.052 2.33243C12.0657 2.31853 12.0735 2.29968 12.0735 2.28003C12.0735 2.26038 12.0657 2.24153 12.052 2.22763C12.0382 2.21373 12.0195 2.20593 12 2.20593Z" fill="#2E2F67"/>
            <path d="M12.9585 2.43214C12.9384 2.43266 12.9184 2.42911 12.8997 2.4217C12.8809 2.41429 12.8639 2.40316 12.8495 2.38899C12.8351 2.37481 12.8236 2.35787 12.8158 2.33915C12.808 2.32044 12.8039 2.30034 12.804 2.28003C12.804 2.23865 12.8202 2.19897 12.8492 2.16972C12.8782 2.14046 12.9175 2.12402 12.9585 2.12402C12.9995 2.12402 13.0389 2.14046 13.0679 2.16972C13.0968 2.19897 13.1131 2.23865 13.1131 2.28003C13.1131 2.30034 13.1091 2.32044 13.1013 2.33915C13.0935 2.35787 13.082 2.37481 13.0676 2.38899C13.0532 2.40316 13.0361 2.41429 13.0174 2.4217C12.9987 2.42911 12.9787 2.43266 12.9585 2.43214ZM12.9585 2.20593C12.9391 2.20593 12.9204 2.21373 12.9066 2.22763C12.8929 2.24153 12.8851 2.26038 12.8851 2.28003C12.8851 2.29968 12.8929 2.31853 12.9066 2.33243C12.9204 2.34633 12.9391 2.35413 12.9585 2.35413C12.978 2.35413 12.9967 2.34633 13.0105 2.33243C13.0242 2.31853 13.032 2.29968 13.032 2.28003C13.032 2.2703 13.0301 2.26066 13.0264 2.25167C13.0227 2.24268 13.0173 2.23451 13.0105 2.22763C13.0036 2.22075 12.9956 2.21529 12.9866 2.21157C12.9777 2.20784 12.9682 2.20593 12.9585 2.20593Z" fill="#2E2F67"/>
            <path d="M13.913 2.43214C13.8929 2.43266 13.8729 2.42911 13.8541 2.4217C13.8354 2.41429 13.8183 2.40316 13.8039 2.38899C13.7895 2.37481 13.7781 2.35787 13.7703 2.33915C13.7624 2.32044 13.7584 2.30034 13.7584 2.28003C13.7584 2.23865 13.7747 2.19897 13.8037 2.16972C13.8327 2.14046 13.872 2.12402 13.913 2.12402C13.954 2.12402 13.9933 2.14046 14.0223 2.16972C14.0513 2.19897 14.0676 2.23865 14.0676 2.28003C14.0676 2.30034 14.0636 2.32044 14.0558 2.33915C14.048 2.35787 14.0365 2.37481 14.0221 2.38899C14.0077 2.40316 13.9906 2.41429 13.9719 2.4217C13.9531 2.42911 13.9331 2.43266 13.913 2.43214ZM13.913 2.20593C13.9032 2.20536 13.8934 2.20689 13.8843 2.21041C13.8751 2.21394 13.8668 2.21938 13.8598 2.22637C13.8529 2.23337 13.8475 2.24177 13.844 2.25102C13.8405 2.26026 13.839 2.27015 13.8396 2.28003C13.8396 2.28976 13.8415 2.2994 13.8452 2.30839C13.8489 2.31738 13.8543 2.32555 13.8611 2.33243C13.8679 2.33931 13.876 2.34477 13.8849 2.34849C13.8938 2.35222 13.9034 2.35413 13.913 2.35413C13.9238 2.35419 13.9346 2.35194 13.9445 2.34754C13.9544 2.34315 13.9633 2.33669 13.9706 2.3286C13.9779 2.32051 13.9834 2.31096 13.9868 2.30058C13.9902 2.2902 13.9914 2.27921 13.9903 2.26833C13.9875 2.25007 13.9779 2.23355 13.9636 2.22201C13.9493 2.21046 13.9313 2.20473 13.913 2.20593Z" fill="#2E2F67"/>
            <path d="M14.8754 2.43214C14.8553 2.43266 14.8353 2.42911 14.8165 2.4217C14.7978 2.41429 14.7807 2.40316 14.7663 2.38899C14.7519 2.37481 14.7405 2.35787 14.7327 2.33915C14.7248 2.32044 14.7208 2.30034 14.7208 2.28003C14.7208 2.25954 14.7248 2.23926 14.7326 2.22033C14.7404 2.2014 14.7517 2.1842 14.7661 2.16972C14.7805 2.15523 14.7975 2.14374 14.8163 2.1359C14.835 2.12806 14.8551 2.12402 14.8754 2.12402C14.8957 2.12402 14.9158 2.12806 14.9346 2.1359C14.9533 2.14374 14.9704 2.15523 14.9847 2.16972C14.9991 2.1842 15.0105 2.2014 15.0182 2.22033C15.026 2.23926 15.03 2.25954 15.03 2.28003C15.03 2.30034 15.026 2.32044 15.0182 2.33915C15.0104 2.35787 14.9989 2.37481 14.9845 2.38899C14.9701 2.40316 14.953 2.41429 14.9343 2.4217C14.9155 2.42911 14.8955 2.43266 14.8754 2.43214ZM14.8754 2.20593C14.8576 2.20482 14.84 2.21068 14.8263 2.2223C14.8127 2.23392 14.8039 2.2504 14.802 2.26833C14.802 2.28798 14.8097 2.30683 14.8235 2.32073C14.8373 2.33463 14.8559 2.34243 14.8754 2.34243C14.8946 2.34149 14.9127 2.33338 14.9263 2.31968C14.9399 2.30598 14.9479 2.28768 14.9488 2.26833C14.9461 2.25077 14.9371 2.2348 14.9236 2.22334C14.9102 2.21189 14.893 2.2057 14.8754 2.20593Z" fill="#2E2F67"/>
            <path d="M15.8453 2.43214C15.8252 2.43266 15.8052 2.42911 15.7865 2.4217C15.7677 2.41429 15.7506 2.40316 15.7362 2.38899C15.7218 2.37481 15.7104 2.35787 15.7026 2.33915C15.6948 2.32044 15.6907 2.30034 15.6907 2.28003C15.6907 2.23865 15.707 2.19897 15.736 2.16972C15.765 2.14046 15.8043 2.12402 15.8453 2.12402C15.8654 2.12402 15.8854 2.12808 15.9039 2.13596C15.9225 2.14385 15.9392 2.1554 15.9533 2.16994C15.9673 2.18448 15.9784 2.20172 15.9857 2.22062C15.993 2.23953 15.9966 2.25973 15.9961 2.28003C15.9966 2.30015 15.993 2.32017 15.9857 2.33887C15.9783 2.35756 15.9672 2.37455 15.9531 2.38878C15.939 2.40301 15.9222 2.4142 15.9036 2.42165C15.8851 2.42911 15.8653 2.43267 15.8453 2.43214ZM15.8453 2.20593C15.8355 2.20536 15.8257 2.20689 15.8166 2.21041C15.8074 2.21394 15.7991 2.21938 15.7922 2.22637C15.7852 2.23337 15.7798 2.24177 15.7763 2.25102C15.7728 2.26026 15.7713 2.27015 15.7719 2.28003C15.7719 2.28976 15.7738 2.2994 15.7775 2.30839C15.7812 2.31738 15.7866 2.32555 15.7934 2.33243C15.8002 2.33931 15.8083 2.34477 15.8172 2.34849C15.8261 2.35222 15.8357 2.35413 15.8453 2.35413C15.8645 2.35034 15.8815 2.33939 15.8929 2.32347C15.9044 2.30756 15.9095 2.28786 15.9072 2.26833C15.9048 2.25261 15.8976 2.23806 15.8865 2.22683C15.8753 2.21559 15.8609 2.20826 15.8453 2.20593Z" fill="#2E2F67"/>
            <path d="M16.7923 2.43214C16.7722 2.43266 16.7522 2.42911 16.7334 2.4217C16.7147 2.41429 16.6976 2.40316 16.6832 2.38899C16.6688 2.37481 16.6573 2.35787 16.6495 2.33915C16.6417 2.32044 16.6377 2.30034 16.6377 2.28003C16.6377 2.23865 16.654 2.19897 16.683 2.16972C16.712 2.14046 16.7513 2.12402 16.7923 2.12402C16.8124 2.12402 16.8323 2.12808 16.8509 2.13596C16.8694 2.14385 16.8862 2.1554 16.9003 2.16994C16.9143 2.18448 16.9253 2.20172 16.9327 2.22062C16.94 2.23953 16.9435 2.25973 16.943 2.28003C16.9435 2.30015 16.94 2.32017 16.9326 2.33887C16.9252 2.35756 16.9142 2.37455 16.9 2.38878C16.8859 2.40301 16.8691 2.4142 16.8506 2.42165C16.8321 2.42911 16.8122 2.43267 16.7923 2.43214ZM16.7923 2.20593C16.7825 2.20536 16.7727 2.20689 16.7635 2.21041C16.7544 2.21394 16.7461 2.21938 16.7391 2.22637C16.7322 2.23337 16.7268 2.24177 16.7233 2.25102C16.7198 2.26026 16.7183 2.27015 16.7189 2.28003C16.7189 2.29968 16.7266 2.31853 16.7404 2.33243C16.7541 2.34633 16.7728 2.35413 16.7923 2.35413C16.8028 2.35366 16.8131 2.35102 16.8226 2.34639C16.832 2.34176 16.8404 2.33522 16.8473 2.32719C16.8542 2.31916 16.8594 2.3098 16.8625 2.29968C16.8657 2.28955 16.8668 2.27889 16.8657 2.26833C16.8629 2.25077 16.854 2.2348 16.8405 2.22334C16.827 2.21188 16.8099 2.2057 16.7923 2.20593Z" fill="#2E2F67"/>
            <path d="M17.7508 2.43214C17.7307 2.43266 17.7106 2.42911 17.6919 2.4217C17.6732 2.41429 17.6561 2.40316 17.6417 2.38899C17.6273 2.37481 17.6158 2.35787 17.608 2.33915C17.6002 2.32044 17.5962 2.30034 17.5962 2.28003C17.5962 2.23865 17.6125 2.19897 17.6415 2.16972C17.6705 2.14046 17.7098 2.12402 17.7508 2.12402C17.7709 2.12402 17.7908 2.12808 17.8094 2.13596C17.8279 2.14385 17.8447 2.1554 17.8588 2.16994C17.8728 2.18448 17.8838 2.20172 17.8912 2.22062C17.8985 2.23953 17.902 2.25973 17.9015 2.28003C17.902 2.30015 17.8985 2.32017 17.8911 2.33887C17.8837 2.35756 17.8726 2.37455 17.8585 2.38878C17.8444 2.40301 17.8276 2.4142 17.8091 2.42165C17.7906 2.42911 17.7707 2.43267 17.7508 2.43214ZM17.7508 2.20593C17.741 2.20536 17.7312 2.20689 17.722 2.21041C17.7129 2.21394 17.7045 2.21938 17.6976 2.22637C17.6907 2.23337 17.6853 2.24177 17.6818 2.25102C17.6783 2.26026 17.6768 2.27015 17.6774 2.28003C17.6774 2.28976 17.6793 2.2994 17.6829 2.30839C17.6866 2.31738 17.692 2.32555 17.6989 2.33243C17.7057 2.33931 17.7138 2.34477 17.7227 2.34849C17.7316 2.35222 17.7411 2.35413 17.7508 2.35413C17.7613 2.35366 17.7716 2.35102 17.781 2.34639C17.7905 2.34176 17.7989 2.33522 17.8058 2.32719C17.8127 2.31916 17.8179 2.3098 17.821 2.29968C17.8242 2.28955 17.8253 2.27889 17.8242 2.26833C17.8214 2.25077 17.8125 2.2348 17.799 2.22334C17.7855 2.21188 17.7684 2.2057 17.7508 2.20593Z" fill="#2E2F67"/>
            <path d="M18.7091 2.43212C18.6876 2.4333 18.6662 2.42983 18.6462 2.42196C18.6262 2.4141 18.608 2.402 18.593 2.38649C18.578 2.37098 18.5665 2.35241 18.5592 2.33203C18.5519 2.31164 18.549 2.28992 18.5506 2.26831C18.5506 2.22694 18.5669 2.18725 18.5959 2.158C18.6249 2.12874 18.6642 2.1123 18.7052 2.1123C18.7253 2.1123 18.7453 2.11636 18.7638 2.12424C18.7824 2.13213 18.7991 2.14369 18.8132 2.15823C18.8272 2.17277 18.8383 2.19 18.8456 2.2089C18.8529 2.22781 18.8565 2.24801 18.8559 2.26831C18.8581 2.28904 18.8559 2.31001 18.8495 2.32983C18.8431 2.34965 18.8327 2.36789 18.8188 2.38335C18.8049 2.39881 18.788 2.41114 18.7691 2.41955C18.7502 2.42795 18.7297 2.43223 18.7091 2.43212ZM18.7091 2.20591C18.6993 2.20534 18.6895 2.20687 18.6803 2.2104C18.6712 2.21392 18.6629 2.21936 18.6559 2.22636C18.649 2.23335 18.6436 2.24175 18.6401 2.251C18.6366 2.26024 18.6351 2.27013 18.6357 2.28001C18.6357 2.28974 18.6376 2.29938 18.6412 2.30837C18.6449 2.31736 18.6503 2.32553 18.6572 2.33241C18.664 2.33929 18.6721 2.34475 18.681 2.34847C18.6899 2.3522 18.6994 2.35411 18.7091 2.35411C18.7196 2.35364 18.7299 2.351 18.7394 2.34637C18.7488 2.34174 18.7572 2.33521 18.7641 2.32717C18.771 2.31914 18.7762 2.30978 18.7793 2.29966C18.7825 2.28954 18.7836 2.27887 18.7825 2.26831C18.7797 2.25075 18.7708 2.23478 18.7573 2.22332C18.7438 2.21187 18.7267 2.20569 18.7091 2.20591Z" fill="#2E2F67"/>
            <path d="M19.6675 2.43214C19.6474 2.43266 19.6274 2.42911 19.6087 2.4217C19.5899 2.41429 19.5729 2.40316 19.5584 2.38899C19.544 2.37481 19.5326 2.35787 19.5248 2.33915C19.517 2.32044 19.5129 2.30034 19.5129 2.28003C19.5129 2.23865 19.5292 2.19897 19.5582 2.16972C19.5872 2.14046 19.6265 2.12402 19.6675 2.12402C19.6877 2.12402 19.7076 2.12808 19.7261 2.13596C19.7447 2.14385 19.7614 2.1554 19.7755 2.16994C19.7895 2.18448 19.8006 2.20172 19.8079 2.22062C19.8153 2.23953 19.8188 2.25973 19.8183 2.28003C19.8188 2.30015 19.8152 2.32017 19.8079 2.33887C19.8005 2.35756 19.7894 2.37455 19.7753 2.38878C19.7612 2.40301 19.7444 2.4142 19.7258 2.42165C19.7073 2.42911 19.6875 2.43267 19.6675 2.43214ZM19.6675 2.20593C19.6497 2.20482 19.6321 2.21068 19.6184 2.2223C19.6048 2.23392 19.5961 2.2504 19.5941 2.26833C19.5941 2.28798 19.6018 2.30683 19.6156 2.32073C19.6294 2.33462 19.6481 2.34243 19.6675 2.34243C19.6867 2.34149 19.7048 2.33338 19.7184 2.31968C19.732 2.30598 19.74 2.28768 19.741 2.26833C19.7382 2.25077 19.7292 2.2348 19.7157 2.22334C19.7023 2.21188 19.6852 2.2057 19.6675 2.20593Z" fill="#2E2F67"/>
            <path d="M23.8725 16.6716L20.429 12.4087L21.0512 1.39078L21.0821 0.957862H21.0435L19.4357 0.708252H4.58357L2.95652 0.953962H2.91787L2.94879 1.38688L3.57101 12.4087L0.127536 16.6716L0 16.8315V17.1513L0.158454 20.7083H23.8106L23.9691 17.1513V16.8315L23.8725 16.6716ZM17.7391 12.7402L18.0522 13.5008H15.1614L15.0415 12.7402H17.7391ZM21.8164 14.8931H18.7981L18.2918 13.6607H20.8193L21.8164 14.8931ZM18.628 14.8931H15.3816L15.1884 13.6607H18.1179L18.628 14.8931ZM12.0812 13.6607H15.0261L15.2232 14.8931H12.0812V13.6607ZM14.8792 12.7402L14.999 13.5008H12.0812V12.7402H14.8792ZM12.0812 15.053H15.2464L15.5053 16.6716H12.0812V15.053ZM15.6676 16.6716L15.4087 15.053H18.6937L19.3623 16.6716H15.6676ZM19.5324 16.6716L18.8638 15.053H21.9556L23.2657 16.6716H19.5324ZM20.6918 13.5008H18.2261L17.913 12.7402H20.0734L20.6918 13.5008ZM19.9614 12.2605H12.0812V2.72853H20.4831L19.9614 12.2605ZM3.42802 1.43758H20.5681L20.5063 2.56473H3.47826L3.42802 1.43758ZM3.50145 2.72853H11.9188V12.2605H4.03865L3.50145 2.72853ZM3.92657 12.7402H11.9188V16.6716H0.745894L3.92657 12.7402ZM23.37 20.2285H0.629952L0.490821 17.1513H23.5092L23.37 20.2285Z" fill="#2E2F67"/>
            <path d="M5.29085 13.1965H4.3324V13.2784H5.29085V13.1965Z" fill="#2E2F67"/>
            <path d="M7.20003 13.1965H6.24158V13.2784H7.20003V13.1965Z" fill="#2E2F67"/>
            <path d="M9.10524 13.1965H8.14679V13.2784H9.10524V13.1965Z" fill="#2E2F67"/>
            <path d="M11.0145 13.1965H10.056V13.2784H11.0145V13.1965Z" fill="#2E2F67"/>
            <path d="M4.5604 14.4368H3.47827V14.5187H4.5604V14.4368Z" fill="#2E2F67"/>
            <path d="M6.71311 14.4368H5.63098V14.5187H6.71311V14.4368Z" fill="#2E2F67"/>
            <path d="M8.86185 14.4368H7.77972V14.5187H8.86185V14.4368Z" fill="#2E2F67"/>
            <path d="M11.0144 14.4368H9.93231V14.5187H11.0144V14.4368Z" fill="#2E2F67"/>
            <path d="M3.65228 15.8955H2.41943V15.9774H3.65228V15.8955Z" fill="#2E2F67"/>
            <path d="M6.10632 15.8955H4.87347V15.9774H6.10632V15.8955Z" fill="#2E2F67"/>
            <path d="M8.56037 15.8955H7.32751V15.9774H8.56037V15.8955Z" fill="#2E2F67"/>
            <path d="M11.0145 15.8955H9.78162V15.9774H11.0145V15.8955Z" fill="#2E2F67"/>
            <path d="M5.19032 15.8526C5.18126 15.8075 5.18246 15.7608 5.19384 15.7163C5.20522 15.6717 5.22648 15.6303 5.25602 15.5952C5.30685 15.5377 5.37717 15.5015 5.45313 15.4938C5.459 15.4903 5.46567 15.4885 5.47245 15.4885C5.47923 15.4885 5.4859 15.4903 5.49177 15.4938C5.49177 15.4938 5.51883 15.4938 5.53429 15.4938C5.59587 15.5011 5.6535 15.5282 5.69871 15.571C5.74393 15.6138 5.77434 15.6701 5.78549 15.7317C5.80085 15.7996 5.79407 15.8707 5.76617 15.9345H5.79709C5.82232 15.8742 5.83035 15.808 5.82028 15.7434C5.80919 15.6817 5.78231 15.6241 5.7423 15.5762C5.7023 15.5283 5.65057 15.4918 5.59226 15.4704H5.53815L5.66955 15.3495L5.5768 15.2559H5.41061L5.33718 15.3495L5.46472 15.4548H5.41061C5.32201 15.4761 5.24539 15.532 5.19758 15.6102C5.14976 15.6884 5.13464 15.7826 5.15554 15.8721L5.17487 15.9267H5.21351C5.20286 15.903 5.19508 15.8781 5.19032 15.8526ZM5.36037 15.3495C5.37955 15.3283 5.39761 15.3062 5.41448 15.2832H5.57293L5.6309 15.3378L5.58453 15.3807L5.50337 15.4509L5.36037 15.3495Z" fill="#2E2F67"/>
            <path d="M8.02332 14.3939C8.01457 14.3493 8.01594 14.3034 8.02732 14.2595C8.0387 14.2156 8.05979 14.1748 8.08902 14.1403C8.13945 14.0817 8.20972 14.0442 8.28612 14.035C8.29199 14.0316 8.29866 14.0298 8.30544 14.0298C8.31222 14.0298 8.31889 14.0316 8.32476 14.035C8.32476 14.0155 8.34795 14.035 8.36341 14.035C8.42505 14.0433 8.48265 14.0706 8.52831 14.1132C8.57398 14.1558 8.60547 14.2116 8.61848 14.273C8.63441 14.3425 8.62623 14.4155 8.5953 14.4797H8.63781C8.66189 14.4177 8.66988 14.3506 8.661 14.2847C8.65042 14.2233 8.62366 14.1659 8.58354 14.1185C8.54342 14.0712 8.49142 14.0356 8.43298 14.0155H8.37887L8.51027 13.8946L8.41752 13.8049H8.22428C8.19723 13.8361 8.17404 13.8712 8.15085 13.9024L8.27839 14.0077H8.25906C8.17046 14.029 8.09384 14.0849 8.04603 14.1632C7.99821 14.2414 7.98309 14.3356 8.00399 14.4251C8.00234 14.4445 8.00234 14.4641 8.00399 14.4836H8.04264C8.0318 14.4548 8.02528 14.4246 8.02332 14.3939ZM8.19336 13.8946L8.24747 13.8283H8.39819L8.45616 13.8868L8.40979 13.9258L8.32863 13.9999L8.19336 13.8946Z" fill="#2E2F67"/>
            <path d="M10.1721 14.3939C10.1639 14.349 10.1659 14.3029 10.1779 14.259C10.19 14.2151 10.2118 14.1745 10.2417 14.1403C10.2911 14.0805 10.3619 14.0426 10.4388 14.035C10.4441 14.032 10.4501 14.0303 10.4562 14.0303C10.4623 14.0303 10.4683 14.032 10.4735 14.035C10.4735 14.0155 10.5006 14.035 10.5161 14.035C10.564 14.0424 10.6095 14.0609 10.649 14.0893C10.6885 14.1176 10.7208 14.1549 10.7433 14.1982C10.7659 14.2415 10.7781 14.2895 10.7789 14.3384C10.7797 14.3873 10.7691 14.4357 10.7479 14.4797H10.7866C10.8052 14.436 10.8147 14.389 10.8145 14.3416C10.8144 14.2941 10.8046 14.2472 10.7857 14.2037C10.7669 14.1602 10.7394 14.121 10.705 14.0887C10.6706 14.0563 10.63 14.0314 10.5856 14.0155H10.5277L10.6629 13.8946L10.5702 13.8049H10.3731C10.3499 13.8361 10.3267 13.8712 10.2996 13.9024L10.4272 14.0077H10.3963C10.3474 14.0195 10.3016 14.0419 10.2623 14.0734C10.2229 14.105 10.1909 14.1448 10.1684 14.1902C10.1459 14.2355 10.1336 14.2853 10.1322 14.336C10.1308 14.3867 10.1405 14.437 10.1605 14.4836H10.1992C10.1858 14.4552 10.1766 14.4249 10.1721 14.3939ZM10.346 13.8946C10.3653 13.8712 10.3808 13.8478 10.4001 13.8283C10.4194 13.8088 10.4001 13.8283 10.4001 13.8283H10.547L10.605 13.8868L10.5586 13.9258L10.4813 13.9999L10.346 13.8946Z" fill="#2E2F67"/>
            <path d="M3.69468 14.3939C3.68645 14.349 3.68844 14.3029 3.70049 14.259C3.71255 14.2151 3.73435 14.1745 3.76424 14.1403C3.81274 14.0813 3.882 14.0436 3.95748 14.035C3.96336 14.0316 3.97002 14.0298 3.9768 14.0298C3.98359 14.0298 3.99025 14.0316 3.99613 14.035C3.99613 14.0155 4.02318 14.035 4.03864 14.035C4.08654 14.0424 4.13207 14.0609 4.17155 14.0893C4.21103 14.1176 4.24336 14.1549 4.26592 14.1982C4.28849 14.2415 4.30066 14.2895 4.30146 14.3384C4.30226 14.3873 4.29166 14.4357 4.27052 14.4797H4.30917C4.32774 14.436 4.33724 14.389 4.3371 14.3416C4.33695 14.2941 4.32716 14.2472 4.30832 14.2037C4.28948 14.1602 4.26201 14.121 4.22759 14.0887C4.19317 14.0563 4.15254 14.0314 4.10821 14.0155H4.05023L4.18164 13.8946C4.15131 13.8627 4.11904 13.8328 4.08502 13.8049H3.89178L3.81835 13.9024L3.94975 14.0077C3.90562 14.0178 3.86392 14.0367 3.8271 14.0632C3.79028 14.0898 3.75908 14.1234 3.73533 14.1623C3.71157 14.2012 3.69574 14.2444 3.68876 14.2896C3.68178 14.3347 3.68379 14.3807 3.69468 14.4251C3.69293 14.4445 3.69293 14.4641 3.69468 14.4836H3.73719C3.71649 14.4573 3.70196 14.4266 3.69468 14.3939ZM3.86473 13.8946L3.91497 13.8283H4.07342L4.13139 13.8868L4.08502 13.9258L4.00772 13.9999L3.86473 13.8946Z" fill="#2E2F67"/>
            <path d="M16.6184 10.7707C16.5667 10.7066 16.4962 10.6607 16.417 10.6397C16.3378 10.6186 16.254 10.6235 16.1778 10.6537H16.1546C16.1546 10.5093 16.1546 10.4001 16.1546 10.2636C16.1546 10.2636 16.1237 7.92354 16.1121 6.8588C16.1121 6.27768 16.1121 5.62245 16.1121 5.02183C16.1121 4.17549 16.0309 2.99765 16.0232 2.95085C15.9923 2.81824 15.8222 2.86894 15.8184 2.99765C15.8184 3.04835 15.8184 4.51871 15.9034 5.51715C15.9382 6.01247 15.973 6.68719 15.9923 7.23322C16.0271 8.13805 16.0619 10.2285 16.0619 10.2285V10.6537C16.0078 10.6537 15.9614 10.6303 15.9111 10.6264C15.8434 10.6199 15.7753 10.6339 15.7155 10.6665C15.6556 10.6992 15.6067 10.749 15.5749 10.8097C15.5383 10.8622 15.5187 10.9248 15.5187 10.9891C15.5187 11.0533 15.5383 11.1159 15.5749 11.1685C15.7105 11.3592 15.8733 11.5288 16.058 11.6716C16.0716 11.6791 16.0869 11.683 16.1024 11.683C16.118 11.683 16.1332 11.6791 16.1469 11.6716C16.3272 11.5472 16.4853 11.393 16.6145 11.2153C16.6673 11.1537 16.6967 11.0751 16.6974 10.9937C16.6981 10.9122 16.6701 10.8332 16.6184 10.7707ZM16.0928 10.3806C16.0928 10.2987 15.9536 5.80576 15.9073 5.24414C15.8725 4.85412 15.8261 3.04445 15.83 3.00155C15.83 2.90014 15.9189 2.88454 15.9536 2.94304C15.9884 3.00155 16.0387 4.11309 16.0425 5.32214C16.0348 6.8471 16.0773 10.3884 16.0773 10.3884L16.0928 10.3806Z" fill="#2E2F67"/>
            <path d="M15.8454 2.31116C15.8454 2.31116 15.8802 2.80648 15.884 2.84938C15.8879 2.89228 15.884 2.93908 15.884 2.94688" fill="#2E2F67"/>
        </g>
    </defs>
</svg>